<?xml version="1.0" encoding="UTF-8"?>
<svg id="Layer_1" data-name="Layer 1" xmlns="http://www.w3.org/2000/svg" viewBox="0 0 420.26 455.31">
  <defs>
    <style>
      .cls-1 {
        stroke: #231f20;
        stroke-width: 5px;
      }

      .cls-1, .cls-2 {
        fill: #231f20;
      }
    </style>
  </defs>
  <path class="cls-2" d="M209.11,440.75c-12.96,0-25.91-3.33-37.46-10.01l-117.49-67.83c-23.11-13.34-37.46-38.21-37.46-64.89V162.36c0-26.68,14.35-51.55,37.46-64.89L171.65,29.64c23.11-13.34,51.82-13.34,74.93,0l117.49,67.83c23.11,13.34,37.46,38.21,37.46,64.89v135.66c0,26.68-14.35,51.55-37.46,64.89l-117.49,67.83c-11.55,6.67-24.51,10.01-37.46,10.01Zm0-403.95c-9.99,0-19.97,2.57-28.88,7.71L62.74,112.34c-17.81,10.28-28.88,29.45-28.88,50.02v135.66c0,20.57,11.07,39.74,28.88,50.02l117.49,67.83c17.81,10.29,39.94,10.29,57.76,0l117.49-67.83c17.81-10.28,28.88-29.45,28.88-50.02V162.36c0-20.57-11.07-39.74-28.88-50.02L237.99,44.5c-8.91-5.14-18.89-7.71-28.88-7.71Z"/>
  <path class="cls-1" d="M310.78,137.68l-89.6-51.73c-7.91-4.57-17.66-4.57-25.57,0l-89.6,51.73c-7.91,4.57-12.78,13.01-12.78,22.14v103.46c0,9.13,4.87,17.57,12.78,22.14l38.34,22.14c12.95-21.87,36.78-36.54,64.04-36.54s51.09,14.67,64.04,36.54l38.34-22.14c7.91-4.57,12.78-13.01,12.78-22.14v-103.46c0-9.13-4.87-17.57-12.78-22.14Z"/>
  <circle class="cls-2" cx="208.4" cy="345.4" r="50.07"/>
</svg>